<svg width="78" height="80" viewBox="0 0 78 80" fill="none" xmlns="http://www.w3.org/2000/svg">
<path d="M3.95831 33.1478V7.49992C3.95831 5.20825 5.83331 3.33325 8.12498 3.33325H51.875C54.1666 3.33325 56.0416 5.20825 56.0416 7.49992V19.6541" stroke="#18193F" stroke-width="6.25" stroke-miterlimit="10" stroke-linecap="round" stroke-linejoin="round"/>
<path d="M56.0416 68.0583V72.2917C56.0416 75.625 52.2916 77.7083 49.375 75.625L31.25 62.7083C30.625 62.0833 29.5833 62.0833 28.75 62.7083L10.625 75.8333C7.91665 77.9167 3.95831 75.8333 3.95831 72.5V46.25" stroke="#18193F" stroke-width="6.25" stroke-miterlimit="10" stroke-linecap="round" stroke-linejoin="round"/>
<path d="M53.9583 20.2313C60 19.8147 66.0416 22.3147 70.2083 27.3147C77.2916 35.648 76.0416 48.3563 67.7083 55.023" stroke="#18193F" stroke-width="6.25" stroke-linecap="round" stroke-linejoin="round"/>
<path d="M53.5416 59.8147C48.3333 59.6064 43.5416 56.898 40 52.7314C32.9166 44.398 34.1666 31.6897 42.5 24.8147" stroke="#18193F" stroke-width="6.25" stroke-linecap="round" stroke-linejoin="round"/>
<path d="M55.2083 46.8979V33.1479" stroke="#18193F" stroke-width="6.25" stroke-linecap="round" stroke-linejoin="round"/>
<path d="M48.3333 40.0229H62.0833" stroke="#18193F" stroke-width="6.25" stroke-linecap="round" stroke-linejoin="round"/>
</svg>
